<?xml version="1.0" encoding="iso-8859-1"?>
<!-- Generator: Adobe Illustrator 19.0.0, SVG Export Plug-In . SVG Version: 6.00 Build 0)  -->
<svg version="1.1" id="Layer_1" xmlns="http://www.w3.org/2000/svg" xmlns:xlink="http://www.w3.org/1999/xlink" x="0px" y="0px"
	 viewBox="0 0 512.003 512.003" style="enable-background:new 0 0 512.003 512.003;" xml:space="preserve">
<path style="fill:#FD5F6E;" d="M359.364,359.364L220.507,508.555c9.561,2.576,19.098,4.813,27.979,2.442
	c16.286-4.347,26.821-23.637,41.754-32.272c14.433-8.344,36.462-7.703,48.811-20.051c21.357-21.357,36.921-46.311,46.716-72.909
	L359.364,359.364z"/>
<path style="fill:#FB7A5B;" d="M256.105,478.725c14.433-8.344,36.462-7.703,48.811-20.051c28.303-28.303,46.451-62.916,54.448-99.31
	L126.238,126.238c-26.598,9.795-51.55,25.359-72.909,46.716c-12.348,12.348-11.705,34.378-20.051,48.811
	c-8.635,14.933-27.924,25.467-32.272,41.753c-4.41,16.521,7.121,35.31,7.121,52.296c0,16.987-11.531,35.776-7.121,52.297
	c4.347,16.286,23.637,26.821,32.272,41.754c8.344,14.433,7.703,36.462,20.05,48.811c12.348,12.348,34.378,11.705,48.811,20.051
	c14.933,8.633,25.467,27.923,41.753,32.272c16.521,4.41,35.31-7.121,52.296-7.121c7.854,0,16.094,2.466,24.317,4.68
	C233.486,501.749,243.138,486.222,256.105,478.725z"/>
<path style="fill:#FE4382;" d="M503.875,196.189c0-16.987,11.531-35.775,7.121-52.296c-4.347-16.286-23.638-26.82-32.272-41.753
	c-8.344-14.433-7.703-36.462-20.051-48.811c-12.348-12.348-34.378-11.705-48.811-20.051c-14.933-8.635-25.467-27.924-41.754-32.272
	c-8.882-2.371-18.418-0.134-27.979,2.442l35.157,371.838l10.479,10.479c26.597-9.795,51.55-25.359,72.909-46.716
	c12.348-12.348,11.705-34.378,20.05-48.811c8.635-14.933,27.924-25.467,32.272-41.754
	C515.407,231.965,503.875,213.176,503.875,196.189z"/>
<path style="fill:#FD5F6E;" d="M444.591,290.238c8.635-14.933,27.924-25.467,32.272-41.754c4.41-16.521-7.121-35.31-7.121-52.297
	s11.531-35.775,7.121-52.296c-4.347-16.286-23.638-26.82-32.272-41.753c-8.344-14.433-7.703-36.462-20.051-48.811
	s-34.378-11.705-48.811-20.051c-12.967-7.498-22.619-23.024-35.6-29.831c-8.223,2.215-16.462,4.681-24.318,4.681
	c-16.987,0-35.775-11.531-52.297-7.121c-16.286,4.347-26.82,23.637-41.753,32.272c-14.433,8.344-36.462,7.703-48.811,20.051
	c-21.357,21.357-36.921,46.311-46.716,72.909l249.052,249.049c17.724-9.27,34.363-21.346,49.254-36.237
	C436.889,326.701,436.246,304.671,444.591,290.238z"/>
<path style="fill:#B440A1;" d="M339.049,172.954c-43.759-43.759-102.592-63.214-159.783-58.431l168.424,281.14
	c12.917-2.054,25.676-5.334,38.075-9.899C412.155,314.108,396.591,230.496,339.049,172.954z"/>
<path style="fill:#FF2796;" d="M304.916,172.954c-35.067-35.069-79.821-54.535-125.649-58.431
	c-18.013,1.506-35.865,5.393-53.03,11.715c-26.388,71.657-10.826,155.27,46.716,212.812
	c47.586,47.585,112.997,66.433,174.736,56.615C379.383,321.928,365.128,233.166,304.916,172.954z"/>
<circle style="fill:#FFFFFF;" cx="152.783" cy="469.301" r="8.533"/>
<path style="fill:#FCD999;" d="M256.002,187.735v136.533c37.703,0,68.267-30.564,68.267-68.267S293.704,187.735,256.002,187.735z"/>
<g>
	<path style="fill:#FFFFFF;" d="M290.135,256.002c0-37.703-15.281-68.267-34.133-68.267c-37.703,0-68.267,30.564-68.267,68.267
		s30.564,68.267,68.267,68.267C274.854,324.268,290.135,293.704,290.135,256.002z"/>
	<circle style="fill:#FFFFFF;" cx="469.313" cy="152.805" r="8.533"/>
	<circle style="fill:#FFFFFF;" cx="435.179" cy="118.672" r="8.533"/>
	<circle style="fill:#FFFFFF;" cx="272.409" cy="42.705" r="8.533"/>
	<circle style="fill:#FFFFFF;" cx="435.179" cy="239.572" r="8.533"/>
</g>
<g>
</g>
<g>
</g>
<g>
</g>
<g>
</g>
<g>
</g>
<g>
</g>
<g>
</g>
<g>
</g>
<g>
</g>
<g>
</g>
<g>
</g>
<g>
</g>
<g>
</g>
<g>
</g>
<g>
</g>
</svg>
