<svg id="Capa_1" enable-background="new 0 0 494.529 494.529" height="512" viewBox="0 0 494.529 494.529" width="512" xmlns="http://www.w3.org/2000/svg"><g><path d="m451.762 307.044c-6.04 20.55-15.12 39.8-26.72 57.22-14.5 1.42-27.78 12.65-37.92 13.57-10.87.98-21.17 5.09-29.99 11.51-.04.03-.08.06-.12.09-10.66 7.72-24.49 12.28-38.96 12.84-1.03.04-2.06.06-3.08.06-13.95 0-26.63-3.72-36.75-9.99-9.02-5.58-19.25-8.86-29.85-9.18-33.38-1-105.61-13.5-175.25-18.14-4.261-6.344 11.44-21.246 11.44-21.246l-38.19-35.174c69.52 5.35 147.01-1.56 186.93-.2 14.3.49 28.24-4.3 39.36-13.32 11.27-9.15 26.15-14.09 41.43-14.73 1.03-.04 2.06-.06 3.08-.06 15.41 0 29.25 4.39 39.83 11.81 11.41 8.01 25.3 11.67 39.18 10.39 15.2-1.41 35.29 6.67 55.58 4.55z" fill="#3a67c1"/><path d="m349.052 340.027c.045 1.167-.046 2.319-.266 3.447-2.063 10.607-14.828 14.149-31.288 14.789-18.212.709-29.145-4.812-29.617-16.953-.286-7.344.084-12.775 8.229-17.09 5.319-2.818 11.916-4.613 19.111-4.893 18.212-.708 33.358 8.559 33.831 20.7z" fill="#91dafa"/><path d="m349.042 341.394c-.61 11.54-14.59 21.22-32.11 21.9-18.21.71-33.36-8.56-33.83-20.7-.28-7.34 4.87-14.06 13.01-18.37-.02.46-.03.91-.01 1.37.47 12.14 15.62 21.41 33.83 20.7 7.19-.28 13.79-2.08 19.11-4.9z" fill="#75cff9"/><path d="m183.362 370.844c-16.196-.673-31.459 26.406-49.779 25.463-18.952-.976-41.007-29.986-60.461-31.283-11.54-17.18-20.63-36.16-26.75-56.42 29.67 2.29 60.8 4.15 89.83 5.66 2.49 4.35 5.13 8.61 7.92 12.76 11 16.37 24.22 31.13 39.24 43.82z" fill="#30569f"/><path d="m387.122 367.834c10.14-.92 23.42-2.15 37.92-3.57-12.664 19.037-28.331 35.905-46.325 49.927-35.845 27.933-80.673 35.902-129.635 35.902-73.22 0-128.855-27.934-166.825-84.474 38.255 2.549 68.156 3.857 101.105 5.22 27.032 1.119 49.966 1.874 65.01 2.325 10.6.32 20.83 3.6 29.85 9.18 10.12 6.27 22.8 9.99 36.75 9.99 1.02 0 2.05-.02 3.08-.06 14.47-.56 28.3-5.12 38.96-12.84.04-.03.08-.06.12-.09 8.82-6.42 19.12-10.53 29.99-11.51z" fill="#91dafa"/><path d="m58.94 55.975-8.79-17.58c-.097-.194-.254-.35-.447-.447l-17.58-8.79c-.737-.369-.737-1.42 0-1.789l17.58-8.79c.194-.097.35-.254.447-.447l8.79-17.58c.369-.737 1.42-.737 1.789 0l8.79 17.58c.097.194.254.35.447.447l17.58 8.79c.737.369.737 1.42 0 1.789l-17.58 8.79c-.194.097-.35.254-.447.447l-8.79 17.58c-.368.737-1.42.737-1.789 0z" fill="#f3d332"/><path d="m449.941 493.977-8.8-17.584c-.097-.194-.254-.35-.447-.447l-17.598-8.791c-.737-.368-.737-1.421 0-1.789l17.598-8.791c.194-.097.351-.254.447-.447l8.8-17.584c.369-.737 1.42-.737 1.789 0l8.8 17.584c.097.193.254.35.447.447l17.598 8.791c.737.368.737 1.421 0 1.789l-17.598 8.791c-.194.097-.351.254-.447.447l-8.8 17.584c-.37.737-1.421.737-1.789 0z" fill="#f3d332"/><g fill="#75cff9"><path d="m479.116 47.273h-6.173c-.552 0-1-.448-1-1v-6.162c0-4.107-3.164-7.688-7.269-7.811-4.247-.128-7.731 3.278-7.731 7.497v6.476c0 .552-.448 1-1 1h-6.173c-4.107 0-7.688 3.164-7.811 7.269-.128 4.247 3.278 7.731 7.497 7.731h6.487c.552 0 1 .448 1 1v6.162c0 4.107 3.164 7.688 7.269 7.811 4.247.128 7.731-3.278 7.731-7.497v-6.477c0-.552.448-1 1-1h6.488c4.219 0 7.624-3.483 7.497-7.731-.124-4.103-3.705-7.268-7.812-7.268z"/><path d="m35.02 391.552h-1.303c-.552 0-1-.448-1-1v-1.296c0-4.107-3.164-7.688-7.269-7.811-4.247-.128-7.731 3.278-7.731 7.497v1.61c0 .552-.448 1-1 1h-1.304c-4.107 0-7.688 3.164-7.811 7.269-.128 4.247 3.278 7.731 7.497 7.731h1.618c.552 0 1 .448 1 1v1.296c0 4.107 3.164 7.688 7.269 7.811 4.247.128 7.731-3.278 7.731-7.497v-1.61c0-.552.448-1 1-1h1.618c4.219 0 7.624-3.483 7.497-7.731-.124-4.105-3.705-7.269-7.812-7.269z"/><path d="m92.199 464.37h-1.304c-.552 0-1-.448-1-1v-1.296c0-4.107-3.164-7.688-7.269-7.811-4.247-.128-7.731 3.278-7.731 7.497v1.61c0 .552-.448 1-1 1h-1.304c-4.107 0-7.688 3.164-7.811 7.269-.128 4.247 3.278 7.731 7.497 7.731h1.618c.552 0 1 .448 1 1v1.296c0 4.107 3.164 7.688 7.269 7.811 4.247.128 7.731-3.278 7.731-7.497v-1.61c0-.552.448-1 1-1h1.618c4.219 0 7.624-3.483 7.497-7.731-.124-4.104-3.705-7.269-7.811-7.269z"/></g><path d="m460.332 247.264c0 13.38-1.242 26.47-3.619 39.162-1.311 7-9.827 7.396-11.811 14.136-20.29 2.12-33.52.522-48.72 1.932-13.88 1.28-27.77-2.38-39.18-10.39-10.58-7.42-24.42-11.81-39.83-11.81-1.02 0-2.05.02-3.08.06-15.28.64-30.16 5.58-41.43 14.73-11.12 9.02-25.06 13.81-39.36 13.32-39.92-1.36-117.41 5.55-186.93.2-3.753-12.271 37.309-24.639 35.885-37.914-1.327-12.368-45.3-25.612-44.425-37.946l1.7-.1 106.76-5.62c101.08 0 68.52-15.72 162.47-15.72 2.1 0 101.7 10.06 149.51 7.4l.14-.01c1.27 9.35 1.92 18.88 1.92 28.57z" fill="#91dafa"/><path d="m414.434 129.024c-54.05 4.92-105.432-2.21-159.642-2.05l-79.97-1.45c-26.45-1.06-56.583 13.808-86.723 11.378 26.438-34.901 55.525-78.587 98.353-91.788 19.719-6.078 40.668-9.35 62.38-9.35 59.889 0 113.956 24.889 152.433 64.887 5.686 5.912 8.195 21.833 13.169 28.373z" fill="#91dafa"/><g fill="#75cff9"><path d="m382.192 411.424c-36.38 29.6-82.8 47.34-133.36 47.34-73.22 0-137.74-37.2-175.71-93.74 38.26 2.55 77.29 4.45 110.24 5.82 36.83 31.15 84.46 49.92 136.47 49.92 21.7 0 42.65-3.27 62.36-9.34z"/><path d="m417.272 119.344c-54.05 4.92-109.649 28.632-163.859 28.792h-87.83c-26.45-1.06-55.281-26.052-85.421-28.482 1.11-1.46 2.24-2.9 3.38-4.33.29-.36.58-.72.87-1.08 2.35-2.9 4.77-5.73 7.26-8.5.22-.24.44-.48.66-.73 25.14-27.65 57.5-48.62 94.12-59.9-13.17 10.72-25.03 22.99-35.29 36.54-4.62 6.1-8.91 12.47-12.86 19.06-.77 1.29.12 2.93 1.61 3.02 6.95.41 13.71.78 20.08 1.1.7.03 1.35-.31 1.74-.89 3.48-5.08 8.19-9.62 13.99-13.33 10.57-6.76 24.22-10.48 38.44-10.48.49 0 .98 0 1.47.01 23.63.42 43.49 10.73 53.05 25.76.38.59 1.02.95 1.72.94 43.52-.51 87.4-2.57 130.86-6.19 5.69 5.91 11.04 12.15 16.01 18.69z"/><path d="m456.702 286.424c-1.291 6.953-2.947 13.837-4.94 20.62-20.29 2.12-40.38 4.04-55.58 5.45-13.88 1.28-27.77-2.38-39.18-10.39-10.58-7.42-24.42-11.81-39.83-11.81-1.02 0-2.05.02-3.08.06-15.28.64-30.16 5.58-41.43 14.73-11.12 9.02-25.06 13.81-39.36 13.32-39.92-1.36-117.41-4.45-186.93-9.8-7.25-23.7-10.35-50.29-8.54-75.86l1.7-.1 59.75-3.15 10.68 6.04c1.48 12.04 3.98 23.75 7.41 35.07 2.14 7.1 4.66 14.04 7.51 20.79.59 1.41 1.95 2.35 3.48 2.43 42.34 2.27 81.08 3.76 105.62 4.59.44.02.88.02 1.32.02 8.9 0 17.7-3.15 24.76-8.88 14.2-11.53 33.09-18.34 53.19-19.18 1.34-.05 2.63-.08 3.92-.08 19.17 0 36.92 5.34 51.31 15.44 6.54 4.59 14.24 7.01 22.27 7.01 1.19 0 2.4-.06 3.59-.17 20.15-1.86 38.77-3.69 55.34-5.42z"/></g><path d="m458.412 218.694-.14.01c-47.81 2.66-147.41 2.6-149.51 2.6-93.95 0-61.39 15.72-162.47 15.72l-36.33-1.49-70.43-2.89c-.899.053 48.792-92.977 57.966-92.337 6.617.462 22.523-17.76 29.184-17.341 17.359 1.092 34.333 2.005 48.14 2.558l79.97 1.45c54.21-.16 108.43-2.71 162.48-7.63 21.58 28.36 36.15 62.34 41.14 99.35z" fill="#3a67c1"/><path d="m108.332 209.264c0 8.89.55 17.66 1.63 26.27l-70.43-2.89-1.7.1c2.86-42.33 18.18-81.24 42.33-113.09 14.41 1.16 30.63 2.31 46.52 3.31-9.92 22.17-16.13 46.36-17.85 71.78-.33 4.8-.5 9.64-.5 14.52z" fill="#30569f"/><path d="m254.805 126.753c0 .07 0 .15-.01.22-.44 14.21-16.875 19.511-38.855 19.121-21.99-.39-38.967-5.816-38.867-20.046.135-7.718 3.217-15.259 11.565-19.859 7.13-3.929 16.462-6.226 26.638-6.046 22.079.39 39.779 12.3 39.529 26.61z" fill="#3a67c1"/><path d="m254.792 127.014c-.47 14.19-18.48 25.33-40.44 24.94-21.99-.39-39.63-12.2-39.53-26.43v-.18c.14-7.78 5.55-14.66 14.01-19.26-.01.09-.01.17-.01.26v.18c-.1 14.23 17.54 26.04 39.53 26.43 10.08.18 19.33-2.07 26.44-5.94z" fill="#30569f"/></g></svg>