<svg id="Capa_1" enable-background="new 0 0 510.001 510.001" height="512" viewBox="0 0 510.001 510.001" width="512" xmlns="http://www.w3.org/2000/svg" xmlns:xlink="http://www.w3.org/1999/xlink"><linearGradient id="lg1"><stop offset="0" stop-color="#feca9c"/><stop offset=".5213" stop-color="#fd8087"/><stop offset="1" stop-color="#f46700"/></linearGradient><linearGradient id="SVGID_1_" gradientUnits="userSpaceOnUse" x1="36.099" x2="473.904" xlink:href="#lg1" y1="255.001" y2="255.001"/><linearGradient id="SVGID_2_" gradientUnits="userSpaceOnUse" x1="-138.999" x2="420.002" xlink:href="#lg1" y1="187.928" y2="187.928"/><linearGradient id="SVGID_3_" gradientUnits="userSpaceOnUse" x1="-138.999" x2="420.002" xlink:href="#lg1" y1="255.001" y2="255.001"/><linearGradient id="lg2"><stop offset="0" stop-color="#fef056"/><stop offset=".5213" stop-color="#f4d902"/><stop offset="1" stop-color="#fe9738"/></linearGradient><linearGradient id="SVGID_4_" gradientUnits="userSpaceOnUse" x1="-13.87" x2="533.605" xlink:href="#lg2" y1="255.003" y2="255.003"/><linearGradient id="SVGID_5_" gradientUnits="userSpaceOnUse" x1="-133.868" x2="384.76" xlink:href="#lg2" y1="255.003" y2="255.003"/><linearGradient id="SVGID_6_" gradientUnits="userSpaceOnUse" x1="-69.46" x2="180.362" xlink:href="#lg2" y1="321.141" y2="321.141"/><g><circle cx="255.001" cy="255.001" fill="url(#SVGID_1_)" r="218.903"/><g><path d="m100.004 212.814c7.251-2.129 14.541-4.423 21.856-6.879 11.869-3.984 18.172-16.932 14.03-28.747l-.003-.008c-4.063-11.59-16.687-17.8-28.328-13.885-6.762 2.274-13.493 4.396-20.179 6.362-10.259 3.017-16.99 12.812-16.088 23.468 1.199 14.161 15.076 23.693 28.712 19.689z" fill="url(#SVGID_2_)"/><path d="m255.001 36.098c-6.747 0-13.419.322-20.01.92.001.02-.001-.014 0 .006 29.451 2.17 39.082 40.221 14.807 56.563-15.227 10.251-31.554 20.051-48.757 29.244-11.148 5.957-15.689 19.997-10.037 31.302 5.43 10.86 18.64 15.065 29.365 9.373 40.679-21.59 77.146-46.513 106.897-73.015 9.048-8.06 22.655-8.25 31.781-.279.151.132.301.264.451.396 10.424 9.183 11.16 24.781 1.551 34.814-3.13 3.269-6.067 6.259-8.116 8.194-20.367 19.237-44.903 37.77-72.448 54.798-9.021 5.577-13.325 16.636-9.813 26.643 4.901 13.962 21.095 19.254 33.186 11.781 30.734-18.996 58.208-39.833 81.082-61.581 10.37-9.859 27.387-6.137 32.794 7.111.055.135.11.269.164.404 2.951 7.273 1.439 15.598-3.874 21.375-6.185 6.724-14.118 15.135-18.214 18.987-35.572 33.457-83.732 64.762-138.39 89.691-10.334 4.713-20.687 9.098-31.011 13.146-11.317 4.438-17.586 16.935-13.647 28.435 4.16 12.146 17.571 18.333 29.469 13.687 11.294-4.41 22.599-9.189 33.863-14.326 62.399-28.459 117.39-65.044 157.238-104.334.361 5.143.549 10.334.549 15.569 0 5.146-.184 10.248-.533 15.305-31.002 31.655-73.59 61.823-122.37 86.44-56.96 28.73-115.01 46.2-163.8 49.3-.79.05-1.58.1-2.37.14-20.794 1.138-38.712-.579-52.534-4.775 18.131 20.138 39.945 36.888 64.383 49.198 15.367-1.313 31.41-3.796 47.911-7.414 40.74-8.93 84.21-24.66 126.76-46.13.299-.151.597-.302.896-.453 19.107-9.683 35.786 16.34 19.031 29.686-32.496 25.886-72.523 42.72-116.267 46.685 6.592.598 13.263.92 20.01.92 120.897 0 218.903-98.006 218.903-218.903s-98.003-218.903-218.9-218.903z" fill="url(#SVGID_3_)"/></g><path d="m502.031 130.351c-16.81-33.33-57.24-50.74-114.34-49.47 18.68 14.26 35 31.46 48.27 50.91 12.64 4.21 21.57 10.62 25.75 18.9 4.18 8.27 4.03 19.24-.07 31.89-4.6 14.16-14.15 30.42-28.16 47.37-.5.6-1 1.2-1.51 1.8-31.48 37.42-80.02 73.74-136.99 102.49-56.96 28.73-115.01 46.2-163.8 49.3-.79.05-1.58.1-2.37.14-21.93 1.2-40.67-.77-54.77-5.48-12.64-4.21-21.57-10.62-25.75-18.9-4.18-8.27-4.03-19.23.07-31.88-7.6-21.7-11.88-44.96-12.23-69.17-34.97 45.18-44.99 88.06-28.16 121.4 16.24 32.2 54.52 49.54 108.57 49.54 1.9 0 3.82-.02 5.77-.07 2.94-.06 5.93-.18 8.96-.34 18.17-.99 37.41-3.73 57.3-8.09 40.74-8.93 84.21-24.66 126.76-46.13 42.54-21.47 81.02-47.09 112.41-74.55 15.33-13.41 28.97-27.26 40.56-41.29 1.93-2.33 3.79-4.65 5.57-6.97 23.89-30.86 36.13-60.64 36.13-87.05 0-12.26-2.64-23.78-7.97-34.35z" fill="url(#SVGID_4_)"/><path d="m510.001 164.701c0 26.41-12.24 56.19-36.13 87.05-1.78 2.32-3.64 4.64-5.57 6.97-11.59 14.03-25.23 27.88-40.56 41.29-31.39 27.46-69.87 53.08-112.41 74.55-42.55 21.47-86.02 37.2-126.76 46.13-19.89 4.36-39.13 7.1-57.3 8.09-3.03.16-6.02.28-8.96.34-1.95.05-3.87.07-5.77.07-6.71 0-13.18-.27-19.4-.8 6.96-.52 14.07-1.28 21.31-2.29 9.82-1.36 19.88-3.17 30.1-5.41 40.74-8.93 84.21-24.66 126.76-46.13 42.54-21.47 81.02-47.09 112.41-74.55 15.33-13.41 28.97-27.26 40.56-41.29 18.41-22.28 30.83-44.09 37.05-64.58 3.09-10.17 4.65-20.02 4.65-29.44 0-12.26-2.64-23.78-7.97-34.35-12.05-23.89-36.25-39.6-70.03-46.11-1.41-1.14-2.84-2.26-4.29-3.36 57.1-1.27 97.53 16.14 114.34 49.47 5.33 10.57 7.97 22.09 7.97 34.35z" fill="url(#SVGID_5_)"/><path d="m74.032 378.201c-12.64-4.21-21.57-10.62-25.74-18.9-4.18-8.27-4.03-19.23.07-31.88-3.588-10.239-6.427-20.812-8.463-31.68-2.29-12.172-3.582-24.697-3.767-37.49-8.93 11.537-16.222 22.923-21.867 34.039.997 5.81 2.227 11.54 3.677 17.182 2.701 10.513 3.277 21.413 2.414 32.233-.534 6.692.411 12.631 2.916 17.595 6.88 13.62 26.58 22.16 54.51 24.23 8.23.62 17.16.67 26.69.12 0-.01 0-.01 0-.01-11.631-.739-21.891-2.589-30.44-5.439z" fill="url(#SVGID_6_)"/></g></svg>